<svg width="186" height="181" viewBox="0 0 186 181" fill="none" xmlns="http://www.w3.org/2000/svg">
<g clip-path="url(#clip0_9424_4366)">
<path d="M62.5332 180.5C64.4662 180.5 66.0332 178.933 66.0332 177C66.0332 175.067 64.4662 173.5 62.5332 173.5C60.6002 173.5 59.0332 175.067 59.0332 177C59.0332 178.933 60.6002 180.5 62.5332 180.5Z" fill="white"/>
<path d="M122.033 172.5C122.585 172.5 123.033 172.052 123.033 171.5C123.033 170.948 122.585 170.5 122.033 170.5C121.481 170.5 121.033 170.948 121.033 171.5C121.033 172.052 121.481 172.5 122.033 172.5Z" fill="white"/>
<path d="M10.0332 138.5C12.7946 138.5 15.0332 136.261 15.0332 133.5C15.0332 130.739 12.7946 128.5 10.0332 128.5C7.27178 128.5 5.0332 130.739 5.0332 133.5C5.0332 136.261 7.27178 138.5 10.0332 138.5Z" fill="white"/>
<path d="M166 91.5C166 130.436 134.436 162 95.5 162C56.5639 162 25 130.436 25 91.5C25 52.5639 56.5639 21 95.5 21C134.436 21 166 52.5639 166 91.5Z" fill="white"/>
<path d="M165.533 163.5C166.914 163.5 168.033 162.381 168.033 161C168.033 159.619 166.914 158.5 165.533 158.5C164.152 158.5 163.033 159.619 163.033 161C163.033 162.381 164.152 163.5 165.533 163.5Z" fill="white"/>
<path d="M170.533 113.5C171.914 113.5 173.033 112.381 173.033 111C173.033 109.619 171.914 108.5 170.533 108.5C169.152 108.5 168.033 109.619 168.033 111C168.033 112.381 169.152 113.5 170.533 113.5Z" fill="white"/>
<path d="M1.0332 76.5C1.58549 76.5 2.0332 76.0523 2.0332 75.5C2.0332 74.9477 1.58549 74.5 1.0332 74.5C0.480918 74.5 0.0332031 74.9477 0.0332031 75.5C0.0332031 76.0523 0.480918 76.5 1.0332 76.5Z" fill="white"/>
<path d="M178.467 35.5C182.609 35.5 185.967 32.1421 185.967 28C185.967 23.8579 182.609 20.5 178.467 20.5C174.325 20.5 170.967 23.8579 170.967 28C170.967 32.1421 174.325 35.5 178.467 35.5Z" fill="white"/>
<path d="M106.533 7.5C107.914 7.5 109.033 6.38071 109.033 5C109.033 3.61929 107.914 2.5 106.533 2.5C105.152 2.5 104.033 3.61929 104.033 5C104.033 6.38071 105.152 7.5 106.533 7.5Z" fill="white"/>
<path d="M20.0332 20.5C25.556 20.5 30.0332 16.0228 30.0332 10.5C30.0332 4.97715 25.556 0.5 20.0332 0.5C14.5104 0.5 10.0332 4.97715 10.0332 10.5C10.0332 16.0228 14.5104 20.5 20.0332 20.5Z" fill="white"/>
</g>
<defs>
<clipPath id="clip0_9424_4366">
<rect width="186" height="181" fill="white"/>
</clipPath>
</defs>
</svg>
