<svg version="1.2" xmlns="http://www.w3.org/2000/svg" viewBox="0 0 1024 1024" width="1024" height="1024">
	<style>
		.s0 { opacity: .91;fill: #fafafa } 
	</style>
	<g id="Background">
		<path id="Path 0" fill-rule="evenodd" class="s0" d="m368.5 344.67c1.65 0.31 4.26 1.3 5.8 2.2 1.54 0.89 3.92 3.88 5.28 6.63 1.74 3.52 2.75 7.82 3.39 14.5 0.55 5.67 0.56 14.54 0.03 22-0.49 6.87-1.38 16.55-1.99 21.5-0.6 4.95-2.41 17.1-4.01 27-1.61 9.9-4.93 27.9-7.4 40-2.46 12.1-4.39 22.12-4.29 22.27 0.1 0.14 6.6-0.42 14.44-1.25 7.84-0.84 16.16-1.53 18.5-1.54 2.34-0.01 4.82 0.56 5.52 1.25 0.69 0.7 1.26 2.06 1.25 3.02-0.01 0.96-1.19 5.24-2.62 9.5-1.42 4.26-3.48 12.02-4.56 17.25-1.08 5.23-2.01 12.87-2.06 17-0.06 5.15 0.43 8.52 1.57 10.75 0.91 1.79 2.66 3.76 3.9 4.38 1.31 0.66 4.02 0.87 6.5 0.5 2.34-0.35 7.74-1.97 12-3.61 4.26-1.63 11.57-5.31 16.25-8.18 4.68-2.86 12.77-8.44 18-12.4 5.23-3.96 12.99-10.18 17.25-13.82 7.42-6.34 7.8-6.87 8.81-12.37 0.59-3.16 2.35-11.15 3.93-17.75 1.57-6.6 4.95-18.75 7.5-27 2.55-8.25 6.69-20.18 9.2-26.5 2.51-6.33 7.35-17.13 10.76-24 3.4-6.88 8.16-15.65 10.57-19.5 2.4-3.85 6.42-9.69 8.92-12.99 2.51-3.29 7.04-8.39 10.06-11.33 3.02-2.94 7.98-6.53 11-7.97 3.02-1.45 7.75-2.82 10.5-3.05 2.75-0.23 6.58 0.06 8.5 0.65 1.92 0.59 4.96 2.68 6.75 4.63 2.33 2.55 3.56 5.19 4.35 9.31 0.82 4.24 0.81 7.72-0.04 13.25-0.63 4.12-2.58 11.77-4.34 17-1.75 5.23-5.83 14.23-9.05 20-3.22 5.77-9.1 15.45-13.07 21.5-3.96 6.05-10.52 15.27-14.57 20.5-4.04 5.23-11.22 13.96-15.94 19.41-4.73 5.45-14.53 15.58-35.01 35.09l-1.03 9c-0.57 4.95-1.03 12.15-1.02 16 0 3.85 0.69 10.15 1.52 14 0.83 3.85 2.4 8.46 3.48 10.25 1.08 1.79 3.32 3.92 4.97 4.75 1.65 0.83 4.24 1.5 5.75 1.49 1.51-0.01 5-1.08 7.75-2.38 2.75-1.3 6.99-4.11 9.43-6.24 2.43-2.13 7.3-7.7 10.82-12.37 3.52-4.67 8.61-12.89 16.25-28l-2.19-4.25c-1.2-2.34-2.39-6.05-2.65-8.25-0.31-2.74 0.19-5.42 1.61-8.5 1.14-2.48 3.8-6.04 5.9-7.92 2.11-1.88 5.63-4.24 7.83-5.23 2.68-1.21 6.47-1.82 11.5-1.84 6.25-0.03 8.4 0.43 12.93 2.73 2.99 1.52 7.17 4.78 9.29 7.26 2.11 2.48 4.51 6.52 5.32 9 0.82 2.48 1.48 5.4 1.49 6.5 0 1.1 0.4 2.67 0.89 3.5 0.76 1.28 2.35 0.91 10.73-2.5 8.12-3.3 11.14-5.19 17.34-10.81 4.13-3.75 9.99-8 13.01-9.44 3.81-1.82 7.66-2.76 12.5-3.04 4.98-0.29 8.3 0.08 11.5 1.29 3.22 1.21 4.77 1.38 5.45 0.6 0.52-0.61 2.1-1.09 3.5-1.08 1.4 0.01 3.57 0.8 4.82 1.75 1.71 1.31 2.53 3.43 3.37 8.73 0.6 3.85 0.93 11.84 0.73 17.75-0.2 5.91-0.14 10.73 0.13 10.72 0.27-0.02 2.98-1.68 6-3.7 3.02-2.02 10.56-6.06 16.75-8.97 6.19-2.92 11.26-5.64 11.27-6.05 0.02-0.41-0.71-2.55-1.6-4.75-1.14-2.77-1.44-5.39-1.01-8.5 0.35-2.48 1.75-6.19 3.11-8.25 1.44-2.18 4.26-4.58 6.73-5.73 2.65-1.23 6.41-1.98 10-2 3.16-0.01 7.33 0.65 9.25 1.48 1.92 0.82 5.56 3.41 8.08 5.75 2.51 2.34 5.72 6.73 7.13 9.75 1.4 3.02 2.83 8.09 3.17 11.26 0.45 4.19 1.03 5.75 2.12 5.74 0.83-0.01 7.58-0.7 15-1.53 7.42-0.83 31.5-4.18 53.5-7.45 22-3.26 49-7.07 60-8.45 11-1.39 27.2-3.26 36-4.17 10.96-1.12 28.51-1.76 95.5-2.4v11.5l-26.75-0.32c-14.71-0.18-34.85 0.18-44.75 0.8-9.9 0.62-26.55 2.02-37 3.1-10.45 1.08-25.98 2.87-34.5 3.99-8.52 1.12-31.7 4.46-51.5 7.43-19.8 2.97-42.75 6.11-51 6.99-8.25 0.87-15.45 1.73-16 1.91-0.55 0.17-1.63 2.97-2.41 6.21-0.77 3.24-2.92 8.81-4.78 12.39-1.85 3.58-5.71 8.88-8.59 11.78-2.87 2.91-7.24 6.26-9.72 7.46-3.18 1.53-6.41 2.17-11 2.18-4.11 0.02-7.6-0.57-9.5-1.59-1.65-0.89-4.29-2.9-5.86-4.47-1.57-1.57-3.56-4.21-4.42-5.86-0.86-1.65-1.76-6.38-2-10.5-0.25-4.13 0.05-9.19 0.67-11.25 0.87-2.93 0.84-3.75-0.14-3.73-0.69 0.01-5.12 2.82-9.85 6.25-4.73 3.43-9.9 7.29-11.5 8.6-2.73 2.23-3.06 3.32-5.59 19-1.47 9.14-3.87 21.58-5.31 27.63-1.45 6.05-4.66 17.08-7.14 24.5-2.48 7.42-6.77 18-9.52 23.5-2.76 5.5-6.5 12.02-8.3 14.5-1.81 2.48-5.93 6.92-9.16 9.87-3.24 2.96-7.12 6-8.63 6.75-1.51 0.76-4.89 1.86-7.5 2.45-3.5 0.78-5.94 0.75-9.25-0.13-2.48-0.66-5.78-2.15-7.35-3.32-1.56-1.16-3.89-3.92-5.16-6.12-1.27-2.2-2.85-6.7-3.52-10-0.68-3.4-0.94-8.6-0.59-12 0.34-3.3 1.55-9.38 2.7-13.5 1.15-4.13 3.81-11.1 5.93-15.5 2.12-4.4 5.96-11.15 8.54-15 2.59-3.85 7.23-10.11 10.32-13.9 3.1-3.8 11.71-12.75 19.13-19.89 7.42-7.14 16.53-15.5 20.23-18.59 6.68-5.58 6.74-5.67 7.33-11.62 0.32-3.3 0.44-8.48-0.06-17l-2.43 4c-1.33 2.2-5.2 7.6-8.59 12-3.38 4.4-8.65 10.25-11.71 13-3.05 2.75-7.96 6.3-10.91 7.89-3.15 1.7-7.42 3.07-10.36 3.31-3.54 0.3-6.02-0.11-8.48-1.39-1.91-0.99-4.55-3.39-5.85-5.31-2.05-3.04-2.3-4.35-1.89-10 0.27-3.58 1.19-8.52 2.05-11 0.86-2.48 1.48-4.56 1.37-4.63-0.11-0.08-3.35 1.07-14.2 5.23l-2.55 6.95c-1.41 3.82-3.88 9.17-5.5 11.89-1.62 2.71-4.97 6.9-7.45 9.31-2.48 2.4-6.98 5.52-10 6.94-3.76 1.75-7.24 2.57-11 2.59-3.61 0.02-6.88-0.67-9.5-2.01-2.2-1.12-5.12-3.49-6.5-5.27-1.37-1.78-2.81-3.74-3.19-4.37-0.39-0.62-0.86-0.9-1.07-0.63-0.2 0.27-1.97 2.75-3.93 5.5-1.96 2.75-6.2 7.41-9.43 10.35-3.24 2.95-9.03 6.92-12.88 8.83-6.45 3.21-7.6 3.45-14.57 3.15-6.25-0.27-8.3-0.81-11.75-3.08-2.3-1.51-5.24-4.44-6.55-6.5-1.3-2.06-3.13-6-4.07-8.75-0.94-2.75-2.15-8.83-2.68-13.5-0.54-4.67-0.65-11.88 0.49-23.5l-7.43 6.12c-4.09 3.36-11.49 8.99-16.44 12.5-4.95 3.52-13.5 8.71-19 11.54-5.5 2.82-13.15 6.11-17 7.3-3.85 1.19-9.7 2.19-13 2.23-3.46 0.04-7.27-0.56-9-1.43-1.65-0.82-4.24-2.9-5.75-4.63-1.51-1.72-3.43-5.49-4.26-8.38-0.83-2.89-1.5-8.4-1.5-12.25 0.01-3.85 1.35-13.52 2.98-21.5 1.63-7.98 2.72-14.73 2.44-15-0.29-0.27-6.02 0.11-12.72 0.85-6.7 0.75-12.64 1.53-13.19 1.75-0.55 0.21-1.53 2.52-2.18 5.14-0.64 2.62-4.77 22.09-9.17 43.26-4.4 21.17-9.17 45.92-10.59 55-1.42 9.08-3.14 21.8-3.82 28.27-0.87 8.3-1.68 12.07-2.74 12.76-0.82 0.55-2.84 0.87-4.48 0.73-1.86-0.16-3.36-1.05-4-2.37-0.71-1.46-0.63-5.75 0.25-14 0.71-6.54 2.39-18.87 3.74-27.39 1.35-8.52 2.7-16.85 2.99-18.5 0.3-1.65 1.42-7.73 2.5-13.5 1.08-5.77 4.64-23.1 7.91-38.5 3.27-15.4 5.79-28.23 5.6-28.5-0.19-0.27-5.22 0.07-11.18 0.78-5.96 0.7-22.08 2.87-35.83 4.82-13.75 1.95-25.34 3.74-25.75 3.97-0.41 0.24-1.87 4.14-3.24 8.68-1.36 4.54-3.81 14.1-5.42 21.25-1.62 7.15-3.46 16.6-4.09 21-0.62 4.4-1.33 9.01-1.57 10.25-0.24 1.24-1.44 2.75-2.68 3.35-1.24 0.61-3.26 0.83-4.5 0.5-1.24-0.33-2.7-1.5-3.25-2.6-0.69-1.38-0.55-5.01 0.46-11.75 0.81-5.36 2.15-13.13 2.99-17.25 0.84-4.13 2.99-12.55 4.79-18.73 1.79-6.17 3.03-11.49 2.76-11.81-0.27-0.33-6.57 0.37-14 1.54-7.43 1.17-20.25 3.2-28.5 4.51-8.25 1.31-25.8 3.96-39 5.89-13.2 1.93-33 4.64-44 6.03-11 1.4-29.67 3.42-41.5 4.51-11.83 1.09-30.61 2.45-41.75 3.02-11.14 0.57-27.9 1.04-54.25 1.04v-10.5l31.25-0.7c17.52-0.4 41.35-1.63 54.25-2.8 12.65-1.15 35.38-3.65 50.5-5.56 15.13-1.9 49.55-6.85 76.5-11 26.95-4.14 50.26-7.85 51.81-8.24 2.59-0.65 3.17-1.79 7.65-15.2 2.66-7.98 7.75-21.93 11.31-31 3.56-9.08 10.24-24.6 14.84-34.5 4.61-9.9 12.13-24.75 16.71-33 4.59-8.25 11.19-19.27 14.68-24.5 3.48-5.23 8.85-12.54 11.92-16.25 3.07-3.71 7.72-8.32 10.33-10.25 2.61-1.92 6.77-4.15 9.25-4.94 2.48-0.79 5.85-1.19 7.5-0.89zm-14.82 19.94c-3.2 3.24-8.42 9.71-11.61 14.39-3.19 4.67-9.06 14.12-13.06 21-3.99 6.87-11.2 20.37-16.01 30-4.81 9.62-12.37 26.5-16.79 37.5-4.42 11-9.88 25.4-12.12 32-2.25 6.6-3.84 12.23-3.52 12.5 0.31 0.27 9.65-0.78 20.75-2.35 11.1-1.57 21.75-3.09 23.68-3.38 1.93-0.29 8.9-1.28 15.5-2.2l12-1.68c1.95-6.89 4.51-19.02 6.95-31.39 2.44-12.38 5.36-28.35 6.49-35.5 1.14-7.15 2.75-18.63 3.59-25.5 0.84-6.88 1.8-18.35 2.12-25.5 0.37-8.19 0.16-15.22-0.56-19-0.64-3.3-1.93-6.8-2.87-7.78-0.95-0.98-1.95-1.75-2.22-1.71-0.27 0.04-1.85 0.66-3.5 1.39-1.65 0.72-5.62 3.97-8.82 7.21zm192.77 18.73c-3.88 3.94-9.42 10.76-12.31 15.16-2.9 4.4-8.35 14.3-12.11 22-3.76 7.7-8.52 18.27-10.56 23.5-2.05 5.23-5.26 14-7.14 19.5-1.87 5.5-4.97 15.96-6.87 23.25-1.9 7.29-3.46 14.04-3.47 15-0.01 1.18 2.14-0.36 6.61-4.75 3.65-3.58 10.51-11 15.27-16.5 4.75-5.5 12.28-14.73 16.74-20.5 4.46-5.77 11.13-15 14.83-20.5 3.69-5.5 9.34-15.4 12.53-22 3.2-6.6 6.86-15.15 8.14-19 1.63-4.89 2.34-9.37 2.36-14.84 0.03-7.18-0.18-7.99-2.47-9.79-1.38-1.07-3.17-1.93-4-1.89-0.83 0.03-3.52 0.99-6 2.13-2.48 1.14-7.67 5.29-11.55 9.23zm180 124.16c0.34 1.65 2.06 4.48 3.83 6.28 1.77 1.81 5.47 4.11 8.22 5.11 2.75 1 6.46 2.11 8.25 2.47 1.84 0.36 3.47 0.21 3.75-0.36 0.27-0.55-0.16-3.36-0.96-6.25-0.8-2.89-2.63-6.83-4.06-8.75-1.43-1.93-3.81-4.28-5.29-5.24-1.48-0.96-4.35-1.75-6.37-1.75-2.84-0.01-4.18 0.62-5.84 2.74-1.58 2.02-1.98 3.54-1.53 5.75zm-169.48 3.67c-1.42 2.05-2.05 4-1.64 5.08 0.6 1.56 0.89 1.48 2.67-0.75 1.1-1.38 3.01-2.5 4.25-2.51 1.24 0 3.26 0.67 4.5 1.5 1.24 0.83 2.25 2.18 2.25 3.01 0 0.83-1.13 2.85-2.5 4.5-1.38 1.65-2.5 3.23-2.5 3.5 0 0.27 1.69 0.95 3.75 1.49 2.06 0.55 6.23 0.96 9.25 0.9 3.02-0.05 6.62-0.4 8-0.78 1.64-0.46 2.62-1.53 2.84-3.15 0.19-1.35-0.2-4.26-0.86-6.46-0.66-2.2-2.05-5.24-3.09-6.75-1.04-1.51-3.69-3.65-5.89-4.75-2.2-1.1-5.91-2-8.25-2-2.45-0.01-5.57 0.81-7.36 1.91-1.72 1.06-4.15 3.42-5.42 5.26zm82.77 2.63c-2.62 2.04-6.3 5.72-8.18 8.2-1.88 2.48-4.68 7.2-6.21 10.5-2.04 4.38-2.8 7.59-2.82 11.88-0.02 4.4 0.39 6.16 1.64 7 1.3 0.87 2.65 0.67 6-0.87 2.38-1.1 7.97-5.6 12.42-10 4.51-4.47 10.82-12.21 14.27-17.51 3.4-5.23 6.19-10.17 6.2-11 0.02-0.83-0.55-2.07-1.27-2.76-0.71-0.69-3.09-1.47-5.29-1.73-2.33-0.27-5.67 0.17-8 1.06-2.2 0.85-6.14 3.2-8.76 5.23zm77.93 22.7c-0.79 2.2-1.76 6.25-2.15 9-0.52 3.6-0.27 6.19 0.88 9.25 0.88 2.34 2.61 4.93 3.85 5.76 1.24 0.83 4.05 1.52 6.25 1.53 2.71 0.01 5.29-0.85 8-2.67 2.2-1.48 4.79-3.63 5.75-4.78 0.96-1.15 3.29-5.24 5.17-9.09 1.88-3.85 3.68-8.24 4-9.75 0.54-2.55 0.31-2.79-3.17-3.3-2.06-0.3-7.13-1.66-11.25-3.02-4.13-1.37-8.21-2.74-9.09-3.04-1.02-0.36-2.51 0.62-4.19 2.77-1.44 1.84-3.26 5.14-4.05 7.34zm-163.09 6.38c-0.79 2.4-1.49 5.78-1.54 7.5-0.05 1.73 0.94 4.67 2.23 6.62 1.27 1.92 3.42 3.9 4.77 4.38 1.35 0.49 4.04 0.62 5.96 0.3 2.15-0.36 5.43-2.29 8.5-4.99 2.98-2.63 6.11-6.68 7.75-10.05 1.51-3.1 2.75-6.2 2.75-6.89 0-0.92-2.02-1.16-7.75-0.9-5.07 0.24-9.74-0.2-13.5-1.25-3.16-0.88-5.99-1.6-6.27-1.6-0.29 0-0.74 0.56-0.99 1.25-0.25 0.69-1.11 3.22-1.91 5.63zm70.79 63.62c-3.29 4.95-7.5 12.15-9.34 16-1.84 3.85-4.33 9.92-5.53 13.5-1.31 3.88-2.29 9.52-2.43 14-0.15 4.62 0.29 8.84 1.16 11 0.76 1.92 2.49 4.29 3.83 5.26 1.34 0.96 3.79 1.76 5.44 1.76 1.65 0.01 5.02-1.28 7.5-2.86 2.47-1.57 5.87-4.39 7.55-6.26 1.68-1.87 5.24-7 7.92-11.4 2.67-4.4 5.95-10.48 7.29-13.5 1.34-3.02 3.75-9.55 5.37-14.5 1.61-4.95 4.68-16.2 6.82-25 2.15-8.8 4.39-19.29 5-23.32 0.61-4.02 0.94-7.57 0.74-7.9-0.19-0.32-8.22 7.25-17.84 16.82-12.36 12.3-19.24 20.04-23.48 26.4zm-219.01-134.47c1.73 0.01 3.94 0.8 4.92 1.75 0.98 0.94 1.76 2.84 1.73 4.22-0.03 1.37-0.84 3.3-1.79 4.28-0.94 0.98-2.96 1.77-4.47 1.75-1.82-0.02-3.44-0.96-4.78-2.78-1.29-1.75-1.79-3.48-1.38-4.75 0.36-1.1 1.1-2.56 1.64-3.25 0.55-0.69 2.41-1.24 4.13-1.22z"/>
	</g>
</svg>